<?xml version="1.0" encoding="utf-8"?>
<!-- Generator: Adobe Illustrator 19.2.1, SVG Export Plug-In . SVG Version: 6.00 Build 0)  -->
<svg version="1.1" id="share" xmlns="http://www.w3.org/2000/svg" xmlns:xlink="http://www.w3.org/1999/xlink" x="0px" y="0px"
	 viewBox="0 0 96 96" style="enable-background:new 0 0 96 96;" xml:space="preserve">
<style type="text/css">
	.st0{fill:#F15D4C;}
</style>
<path class="st0" d="M72,56c-4.8,0-9.1,2.1-12.1,5.5L39.6,51.3c0.2-1.1,0.4-2.2,0.4-3.3s-0.1-2.3-0.4-3.3l20.3-10.2
	C62.9,37.9,67.2,40,72,40c8.8,0,16-7.2,16-16S80.8,8,72,8s-16,7.2-16,16c0,1.1,0.1,2.3,0.4,3.3L36.1,37.5C33.1,34.1,28.8,32,24,32
	c-8.8,0-16,7.2-16,16s7.2,16,16,16c4.8,0,9.1-2.1,12.1-5.5l20.3,10.2C56.1,69.7,56,70.9,56,72c0,8.8,7.2,16,16,16s16-7.2,16-16
	S80.8,56,72,56z M72,16c4.4,0,8,3.6,8,8s-3.6,8-8,8s-8-3.6-8-8S67.6,16,72,16z M24,56c-4.4,0-8-3.6-8-8s3.6-8,8-8s8,3.6,8,8
	S28.4,56,24,56z M72,80c-4.4,0-8-3.6-8-8s3.6-8,8-8s8,3.6,8,8S76.4,80,72,80z"/>
</svg>
